# xmcd
#
# Track frame offsets:
#	150
#	11945
#	32941
#	54639
#	66886
#	79674
#	94841
#	108629
#	125798
#	143341
#
# Disc length: 2092 seconds
#
# Revision: 1
# Processed by: cddbd v1.5.2PL0 Copyright (c) Steve Scherf et al.
# Submitted via: audiograbber 1.83.01
#
DISCID=8c082a0a
DTITLE=Anni Filt - Tender Moments Anni Filt
DYEAR=2008
DGENRE=Country
TTITLE0=Walking Shoes
TTITLE1=Sweethearts
TTITLE2=Rose Of Cimmarron
TTITLE3=Strong Enough To Bend
TTITLE4=Another Chance At Love
TTITLE5=Shake The Sugartree
TTITLE6=Tender Moment
TTITLE7=The Gambler
TTITLE8=What Kind Of Love
TTITLE9=It´s A Beatiful Day
EXTD=
EXTT0=
EXTT1=
EXTT2=
EXTT3=
EXTT4=
EXTT5=
EXTT6=
EXTT7=
EXTT8=
EXTT9=
PLAYORDER=
